<?xml version="1.0" encoding="UTF-8"?>
<svg xmlns="http://www.w3.org/2000/svg" onmouseup="{ if(window.parent.document.onmouseup) window.parent.document.onmouseup(arguments[0]);}" viewBox="0 0 218.86 74.1" xmlns:xlink="http://www.w3.org/1999/xlink"><defs><style>.cls-1{fill:url(#linear-gradient);}.cls-2{fill:url(#linear-gradient-2);}.cls-3,.cls-5{font-size:22.92px;fill:#1d2545;}.cls-3{font-family:SohoGothicPro-Regular, Soho Gothic Pro;}.cls-4{letter-spacing:-0.01em;}.cls-5{font-family:SohoGothicPro-Medium, Soho Gothic Pro;font-weight:500;}</style><linearGradient gradientUnits="userSpaceOnUse" y2="38.22" x2="71.85" y1="38.22" id="linear-gradient"><stop stop-color="#35a8e0" offset="0"/><stop stop-color="#2a316a" offset="1"/></linearGradient><linearGradient gradientUnits="userSpaceOnUse" y2="42.87" x2="80.82" y1="28.14" x1="14.56" id="linear-gradient-2"><stop stop-color="#35a8e0" offset="0"/><stop stop-color="#34a1d9" offset="0.14"/><stop stop-color="#328ec6" offset="0.34"/><stop stop-color="#2f6fa7" offset="0.58"/><stop stop-color="#2b447d" offset="0.84"/><stop stop-color="#282760" offset="1"/></linearGradient></defs><title/><g data-name="Layer 2" id="Layer_2"><g id="Logo"><path data-cppathid="10000" d="M24.1,10.28c-2.59,0-5.14.11-5.79.17-2.34.2-7.68.82-11.39,2.8-.71.38-1.73,1-2.65,1.62A11.6,11.6,0,0,0,2,16.66,7.84,7.84,0,0,0,0,21.25a8.45,8.45,0,0,0,1,4.34C2.56,29,5,31,7.25,32.91a45.66,45.66,0,0,0,3.91,2.9c1.4.94,2.47,1.59,4.6,2.89s3.54,2.12,4,2.38c1.36.8,2.47,1.44,3.92,2.22,1.09.59,1.28.66,6.55,3.32,1.22.61,1.95,1,3,1.53s2.15,1.16,3.57,2a26,26,0,0,1,3.7,2.55,19,19,0,0,1,2.8,3,9.22,9.22,0,0,1,1.5,2.48A5.54,5.54,0,0,1,45.21,60,4.77,4.77,0,0,1,45,61.76a5.91,5.91,0,0,1-.76,1.37,11,11,0,0,1-1.11,1.44,5.5,5.5,0,0,1-.8.72c-.8.6-1.18.74-1.16.82.07.26,4.64-.24,10.16-1.88,4.39-1.31,7.59-2.27,11.15-4.77.93-.65,5.63-4,7.83-8.43,4.49-9-1.2-22.41-8.93-29.91C61.33,21.12,50.55,10.66,24.1,10.28Z" class="cls-1"/><path data-cppathid="10001" d="M32.92,3.82C113.53,0,84.75,67.05,40.32,66.28c35-7.85-27.35-37.13-21.11-55.57C21.82,7,25.54,4.1,32.92,3.82Z" class="cls-2"/><text data-cppathid="10002" transform="translate(91.62 19.97)" class="cls-3">The</text><text data-cppathid="10003" transform="translate(91.62 67.29)" class="cls-3">G<tspan data-cppathid="10004" y="0" x="14.53" class="cls-4">r</tspan><tspan data-cppathid="10005" y="0" x="22.8">oup</tspan></text><text data-cppathid="10006" transform="translate(92.4 43.42)" class="cls-5">G<tspan data-cppathid="10007" y="0" x="15.33" class="cls-4">r</tspan><tspan data-cppathid="10008" y="0" x="24.29">angeside</tspan></text></g></g></svg>